<?xml version="1.0" encoding="UTF-8"?>
<svg viewBox="0 0 32 32" xmlns="http://www.w3.org/2000/svg" xmlns:xlink="http://www.w3.org/1999/xlink">
 <defs>
  <linearGradient id="a">
   <stop stop-color="#fff" offset="0"/>
   <stop stop-color="#fff" stop-opacity="0" offset="1"/>
  </linearGradient>
  <linearGradient id="j" x1="31.02" x2="31.11" y1="1051.8" y2="1028.2" gradientTransform="translate(0 -1020.4)" gradientUnits="userSpaceOnUse" xlink:href="#a"/>
  <linearGradient id="k" x1="31.02" x2="31.18" y1="1021" y2="1025.2" gradientTransform="translate(0 -1020.4)" gradientUnits="userSpaceOnUse" xlink:href="#a"/>
  <radialGradient id="l" cx="12.804" cy="1051.2" r="16" gradientTransform="matrix(1.4546 -2.8423 2.23 1.1412 -2346.7 -1128.5)" gradientUnits="userSpaceOnUse">
   <stop stop-color="#8c6647" offset="0"/>
   <stop stop-color="#f7ef9c" offset="1"/>
  </radialGradient>
  <radialGradient id="m" cx="11.05" cy="32.374" r="14.09" gradientTransform="matrix(1.0992 -.73237 1.721 2.5831 -63.348 -45.826)" gradientUnits="userSpaceOnUse">
   <stop stop-color="#2c558a" offset="0"/>
   <stop stop-color="#729fcf" offset="1"/>
  </radialGradient>
  <mask id="n">
   <rect width="32" height="32" rx="5" fill="#eeeeec"/>
  </mask>
  <linearGradient id="o" x1="33.02" x2="17.557" y1="-1.204" y2="15.48" gradientUnits="userSpaceOnUse">
   <stop stop-color="#89e034" offset="0"/>
   <stop stop-color="#4e9a06" offset="1"/>
  </linearGradient>
  <radialGradient id="p" cx="8.476" cy="6.597" r="1.705" gradientTransform="matrix(1.3798 -.40908 .60164 2.0292 -7.1879 -3.3226)" gradientUnits="userSpaceOnUse">
   <stop stop-color="#eeeeec" offset="0"/>
   <stop stop-color="#eeeeec" stop-opacity="0" offset="1"/>
  </radialGradient>
  <linearGradient id="q" x1="17.857" x2="20.782" y1="7.213" y2="14.11" gradientUnits="userSpaceOnUse">
   <stop stop-color="#d22929" offset="0"/>
   <stop stop-color="#c00" offset="1"/>
  </linearGradient>
 </defs>
 <rect width="32" height="32" rx="5" fill="url(#l)"/>
 <path d="m2.4375 0.71875c-0.34732 0.21088-0.68297 0.46422-0.96875 0.75 0.69885 3.3652 0.48572 7.1506 2.375 9.9688 0.85051 1.2687 2.3013 2.0505 3.625 2.8125 1.1662 0.67136 2.5787 0.83759 3.75 1.5 1.0174 0.57535 2.166 1.1201 2.8125 2.0938 0.44427 0.6691 0.51907 1.5441 0.59375 2.3438 0.06169 0.66058-0.11826 1.3366-0.125 2-0.0103 1.0136-0.24748 2.0885 0.125 3.0312 0.28416 0.71922 0.92983 1.2276 1.5 1.75 1.0285 0.94236 2.1505 1.8614 3.4062 2.4688 1.1659 0.56384 2.4528 0.75841 3.7188 1.0312 1.2711 0.27395 2.7356-0.03275 3.875 0.59375 0.37784 0.20775 0.72592 0.47993 1.0625 0.78125 0.36249-0.089 0.7043-0.21262 1.0312-0.375l-0.1875-0.1875c-0.36081-0.32301-0.73772-0.6277-1.1875-0.875-1.4677-0.807-3.0513-0.43158-4.0938-0.65625-1.2965-0.27942-2.5305-0.5009-3.5625-1-1.1464-0.55443-2.2115-1.4208-3.2188-2.3438-0.59943-0.54923-1.1266-0.99831-1.3125-1.4688-0.26092-0.6604-0.07393-1.6248-0.0625-2.75 0.0054-0.53293 0.20365-1.2203 0.125-2.0625-0.07428-0.79542-0.12928-1.7997-0.71875-2.6875-0.80164-1.2073-2.0791-1.7876-3.0625-2.3438-1.3494-0.76313-2.7643-0.93258-3.75-1.5-1.3368-0.76958-2.6648-1.5031-3.375-2.5625-1.7018-2.5385-1.5222-6.2142-2.25-9.7188l-0.125-0.59375z" fill="#7fb2e8" opacity=".56" stroke-width="1.5"/>
 <path d="m1.4688 1.4688c-0.90375 0.90375-1.4688 2.1462-1.4688 3.5312v22c0 2.77 2.23 5 5 5h22c0.4155 0 0.802-0.0616 1.1875-0.15625-0.33658-0.30132-0.68466-0.5735-1.0625-0.78125-1.1394-0.6265-2.6039-0.3198-3.875-0.59375-1.266-0.27284-2.5529-0.46741-3.7188-1.0312-1.2558-0.60732-2.3778-1.5264-3.4062-2.4688-0.57017-0.52242-1.2158-1.0308-1.5-1.75-0.37248-0.94277-0.1353-2.0176-0.125-3.0312 0.0067-0.66342 0.18669-1.3394 0.125-2-0.07468-0.79968-0.14948-1.6746-0.59375-2.3438-0.6465-0.97368-1.7952-1.5184-2.8125-2.0938-1.1713-0.66241-2.5838-0.82864-3.75-1.5-1.3237-0.76203-2.7745-1.5438-3.625-2.8125-1.8893-2.8182-1.6761-6.6036-2.375-9.9688z" fill="url(#m)"/>
 <path d="m21.031 0c-0.12993 0.089039-0.25828 0.17608-0.375 0.28125-0.18166 0.16368-0.31484 0.34124-0.46875 0.53125-0.1556 0.1921-0.2917 0.39411-0.4375 0.59375-0.19939 0.27302-0.41169 0.55021-0.625 0.8125-0.15428 0.1897-0.30866 0.37767-0.46875 0.5625-0.18587 0.2146-0.36175 0.4555-0.5625 0.65625s-0.42305 0.36932-0.65625 0.53125c-0.24072 0.16715-0.48798 0.30623-0.75 0.4375-0.34255 0.17162-0.6984 0.34949-1.0625 0.46875-0.43686 0.1431-0.91505 0.14655-1.3438 0.3125-0.31078 0.1203-0.61946 0.25484-0.875 0.46875-0.21758 0.18213-0.36454 0.42664-0.53125 0.65625-0.20145 0.27746-0.41794 0.56409-0.5625 0.875-0.14556 0.31307-0.16594 0.6874-0.3125 1-0.11814 0.25198-0.37412 0.41651-0.4375 0.6875-0.07496 0.32051 0.01236 0.68106 0.09375 1 0.0885 0.34678 0.13426 0.73614 0.40625 0.96875 0.40505 0.34641 1.0392 0.27365 1.5625 0.375 0.35986 0.0697 0.72912 0.11872 1.0938 0.15625 0.64799 0.0667 1.2863 0.10682 1.9375 0.125 0.80432 0.02246 1.8685-0.56896 2.4375 0 0.2855 0.2855 0 0.815 0 1.2188 0 0.6504-0.16123 1.3074 0 1.9375 0.07877 0.30786 0.2968 0.55882 0.4375 0.84375 0.15479 0.31346 0.36636 0.62647 0.4375 0.96875 0.10013 0.48177-0.1115 0.98948 0 1.4688 0.07367 0.31667 0.26399 0.60005 0.4375 0.875 0.16402 0.25991 0.43537 0.43894 0.5625 0.71875 0.14291 0.31455 0.07648 0.70408 0.1875 1.0312 0.09142 0.2694 0.23965 0.49978 0.375 0.75 0.12014 0.22208 0.18813 0.48645 0.375 0.65625 0.1926 0.175 0.47605 0.21861 0.71875 0.3125 0.33774 0.13066 0.672 0.38939 1.0312 0.34375 0.34019-0.04322 0.59076-0.37066 0.875-0.5625 0.2049-0.1383 0.41061-0.27146 0.59375-0.4375 0.32428-0.294 0.59805-0.6298 0.875-0.96875 0.1725-0.21111 0.38283-0.41009 0.5-0.65625 0.25765-0.54131 0.3347-1.1594 0.4375-1.75 0.06264-0.3599 0.0042-0.73959 0.09375-1.0938 0.11182-0.4421 0.35877-0.82786 0.53125-1.25 0.15433-0.37773 0.3833-0.72601 0.46875-1.125 0.09109-0.42534 0.02937-0.87878 0.0625-1.3125 0.03761-0.49236 0.069262-0.98268 0.15625-1.4688 0.05307-0.29653 0.09438-0.60063 0.21875-0.875 0.10866-0.23971 0.2872-0.4402 0.4375-0.65625 0.14051-0.20197 0.26178-0.42154 0.4375-0.59375 0.18721-0.18347 0.43327-0.29969 0.65625-0.4375 0.2493-0.15407 0.49112-0.30015 0.75-0.4375 0.41068-0.21789 0.8386-0.40862 1.25-0.625v-3.375c0-2.77-2.23-5-5-5h-5.9688z" fill="url(#o)" opacity=".4"/>
 <path d="m18.938 10.219 0.5625 0.9375 0.03125 0.03125 0.09375 0.1875 1.2188-0.6875-0.125-0.21875v-0.03125l-0.59375-0.9375zm1.3438 2.3438 0.46875 0.96875h0.03125l0.59375 1.4062 0.03125 0.0625 1.3125-0.4375-0.03125-0.0625v-0.0625l-0.65625-1.5v-0.03125l-0.03125-0.03125-0.46875-0.9375zm1.5625 3.7812 0.03125 0.125 0.03125 0.0625 0.15625 0.71875v0.03125l0.125 0.6875v0.0625l0.03125 0.625v0.1875l1.4062 0.09375v-0.28125l-0.0625-0.78125v-0.0625l-0.125-0.78125v-0.0625l-0.1875-0.8125v-0.03125l-0.03125-0.03125-0.0625-0.1875zm0.1875 3.75h-0.03125v0.03125l-0.28125 0.6875-0.0625 0.0625v0.03125l-0.40625 0.59375-0.09375 0.09375-0.5 0.5 1.0312 0.96875 0.5625-0.59375 0.03125-0.03125 0.03125-0.0625 0.5625-0.78125 0.03125-0.03125 0.03125-0.0625 0.375-0.84375 0.03125-0.0625v-0.09375l0.03125-0.09375-1.1562-0.28125-0.1875-0.0625zm-14.656 0.71875h-0.09375l-0.09375 0.03125-0.59375 0.25-0.09375 0.03125-0.0625 0.0625-0.53125 0.375-0.0625 0.0625-0.0625 0.03125-0.25 0.3125-0.03125 0.03125-0.03125 0.03125-0.1875 0.28125 1.1562 0.75 0.125-0.15625 0.0625-0.09375 0.09375-0.125 0.03125-0.03125 0.34375-0.25 0.0625-0.03125 0.375-0.15625 0.53125-0.09375h0.125l0.0625-1.4062h-0.25zm2.0312 1.5 0.625 0.1875 1.5 0.59375 0.0625 0.03125 0.3125 0.15625l0.59375-1.2812-0.34375-0.15625h-0.03125l-0.03125-0.03125-1.5312-0.625h-0.03125l-0.03125-0.03125-0.6875-0.1875zm3.7812 1.5625 1.375 0.625 0.03125 0.03125h0.03125l0.6875 0.28125h0.03125l0.53125 0.15625 0.40625-1.3438-0.46875-0.125-0.0625-0.03125-0.59375-0.21875-0.03125-0.03125-1.3438-0.625zm5.9375-0.75-0.90625 0.375h-0.03125l-0.0625 0.03125-0.84375 0.1875 0.3125 1.3438 0.9375-0.21875h0.03125l0.0625-0.03125 1-0.375h0.03125l0.03125-0.03125 0.71875-0.375-0.6875-1.25zm-14.469 1.125v0.09375l-0.03125 0.96875v0.0625l0.0625 1.0312 0.03125 0.03125v0.03125l0.0625 0.4375 1.375-0.21875-0.0625-0.40625v-0.0625l-0.09375-0.875h0.03125l0.03125-0.9375 0.03125-0.28125-1.375-0.25zm0.40625 4.0625 0.09375 0.3125v0.03125l0.3125 1.0312v0.0625l0.46875 1.3125 1.3125-0.46875-0.4375-1.2812-0.3125-1.0312v-0.03125l-0.0625-0.25zm1.4062 4.0938 0.40625 1v0.03125l0.75 1.5312 1.25-0.59375-0.71875-1.5v-0.03125l-0.40625-0.96875z" fill="#2b2b2b" mask="url(#n)" stroke-width="1.4"/>
 <path d="m5 1.4816c-1.9835 0-3.5312 1.5477-3.5312 3.5312v22c0 1.9835 1.5478 3.5312 3.5312 3.5312h22c1.9835 0 3.5312-1.5477 3.5312-3.5312v-22c0-1.9835-1.5478-3.5313-3.5312-3.5312h-22z" fill="none" opacity=".2" stroke="url(#j)"/>
 <path d="m5 1.4816c-1.9835 0-3.5312 1.5477-3.5312 3.5312v22c0 1.9835 1.5478 3.5312 3.5312 3.5312h22c1.9835 0 3.5312-1.5477 3.5312-3.5312v-22c0-1.9835-1.5478-3.5313-3.5312-3.5312h-22z" fill="none" opacity=".6" stroke="url(#k)"/>
 <path d="m23.822 1.5362c-0.35637 0.014905-0.66598 0.26318-0.97414 0.44279-0.34689 0.20218-0.66137 0.45671-0.97415 0.70846-0.27691 0.22288-0.52532 0.47928-0.79704 0.70846-0.28897 0.24373-0.67493 0.39456-0.88559 0.70846-0.29148 0.43434-0.532 0.99006-0.4428 1.5055 0.06847 0.39562 0.39863 0.71877 0.70846 0.97413 0.37707 0.31077 0.84884 0.52602 1.3284 0.61991 0.58011 0.11357 1.2046 0.079918 1.7712-0.088558 0.39309-0.11688 0.73069-0.37918 1.0627-0.61991 0.28778-0.20866 0.53841-0.46461 0.79704-0.70846 0.24299-0.22912 0.44523-0.50293 0.70848-0.70846 0.27134-0.21186 0.73618-0.2212 0.88559-0.53135 0.19387-0.40245 0.048682-0.94293-0.17712-1.3284-0.22382-0.38206-0.69752-0.54662-1.0627-0.79702-0.22968-0.15748-0.4578-0.32145-0.70846-0.44279-0.39499-0.1912-0.80135-0.46113-1.2398-0.44279z" fill="#3e3e3d" opacity=".27"/>
 <path d="m25.77 11.012c-0.02706 0.15665-0.10942 0.29896-0.17712 0.44279-0.15752 0.33466-0.49056 0.60652-0.53136 0.97414-0.04741 0.42719 0.29461 0.81416 0.35423 1.2398 0.06877 0.49101-0.18716 1.0283 0 1.4874 0.14345 0.35189 0.43096 0.91712 0.79702 0.81511 0.37313-0.10397 0.10934-0.77687 0.26568-1.1313 0.14765-0.3347 0.49449-0.56195 0.61992-0.90559 0.10172-0.27868 0.11589-0.59018 0.08856-0.88558-0.04153-0.44881-0.11964-0.92941-0.37915-1.2979-0.24138-0.34279-0.61905-0.60943-1.0178-0.73891-0.0063-0.0021-0.01537-0.0048-0.01999 0z" fill="#eeeeec" opacity=".219"/>
 <path d="m26.656 23.764c-0.3763 0.07525-0.71588 0.27851-1.0627 0.4428-0.45352 0.21483-1.0702 0.27816-1.3284 0.70848-0.21263 0.35438-3e-6 0.82655-5e-6 1.2398-2e-6 0.44279-0.2778 0.98356-5e-6 1.3284 0.3481 0.43208 1.0775 0.43482 1.6264 0.35424 0.42186-0.06192 0.80275-0.3338 1.1189-0.61992 0.34606-0.3132 0.64403-0.7103 0.79704-1.1513 0.15513-0.44708 0.24423-0.97004 0.08856-1.4169-0.13064-0.37504-0.43424-0.72401-0.79703-0.88559-0.13483-0.06005-0.29806-0.02896-0.44279-1.7e-5z" fill="#e9b96e" opacity=".2"/>
 <path d="m7.4388 4.4586c-0.089375 0.024848-0.1569 0.10988-0.20297 0.19039-0.31337 0.54766-0.57632 1.2359-0.41693 1.8464 0.10032 0.38426 0.5162 0.60476 0.79702 0.88558s0.55098 0.58309 0.88558 0.79702c0.37882 0.2422 0.84947 0.7545 1.2398 0.53135 0.6157-0.35198 0.20118-1.4046 0.26997-2.1104 0.040659-0.41722 0.30183-0.89644 0.084271-1.2548-0.26755-0.44067-0.92624-0.46178-1.4169-0.6199-0.40228-0.12964-0.83261-0.37889-1.2398-0.26568z" fill="url(#p)" opacity=".13"/>
 <path d="m15.498 13.757c0.35146 0.19414 0.67839 0.43692 0.97414 0.70847 0.43161 0.39628 0.79089 0.86635 1.1513 1.3284 0.22161 0.28413 0.50209 0.54507 0.61992 0.88559 0.17402 0.50292-0.09783 1.0956 0.08857 1.5941 0.15174 0.40576 0.64247 0.62182 0.79702 1.0265 0.15188 0.39771 0.08678 0.84838 0.08856 1.2741 0.0016 0.3851 0.24566 0.93324-0.07047 1.1532-0.33433 0.23258-0.82982-0.12931-1.1693-0.35424-0.38441-0.25466-0.69828-0.64135-0.8856-1.0627-0.25438-0.5722-0.11055-1.253-0.26568-1.8597-0.12496-0.4887-0.22593-1.0155-0.53136-1.4169-0.24311-0.31954-0.63106-0.49991-0.97415-0.70848-0.39482-0.24002-0.84151-0.38572-1.2398-0.61992-0.32842-0.19311-0.64037-0.41429-0.9437-0.64483-0.31794-0.24165-0.5795-0.55714-0.91603-0.77213-0.41178-0.26306-0.88311-0.41866-1.3284-0.61992-0.46977-0.21234-1.0776-0.23177-1.4169-0.61992-0.28287-0.3236-0.55833-0.86156-0.35423-1.2398 0.23498-0.43548 0.92213-0.43672 1.4169-0.4428 0.53722-0.0066 1.0563 0.2303 1.5498 0.4428 0.42546 0.18322 0.81449 0.44507 1.1955 0.70848 0.31097 0.21497 0.55897 0.51814 0.88559 0.70848 0.41204 0.24012 0.91092 0.30079 1.3284 0.53138z" fill="#140d00" opacity=".129"/>
 <path d="m18.39 7.2919v3.168l-4.0708 1.5418v1.584l4.0708-1.5418v3.168l2.0354-0.77091v-3.168l4.0708-1.5418v-1.584l-4.0708 1.5418v-3.168l-2.0354 0.77091z" fill="#2e3436" opacity=".23"/>
 <path d="m18.39 6.2922v3.168l-4.0708 1.5418v1.584l4.0708-1.5418v3.168l2.0354-0.77091v-3.168l4.0708-1.5418v-1.584l-4.0708 1.5418v-3.168l-2.0354 0.77091z" fill="url(#q)"/>
 <path d="m5 0.4816c-2.5134 0-4.5312 2.0178-4.5312 4.5312v22c0 2.5134 2.0178 4.5312 4.5312 4.5312h22c2.5134 0 4.5312-2.0178 4.5312-4.5312v-22c0-2.5134-2.0178-4.5312-4.5312-4.5312h-22z" fill="none" opacity=".2" stroke="#000"/>
</svg>
